<?xml version="1.0" encoding="UTF-8" standalone="no"?>
<!DOCTYPE svg PUBLIC "-//W3C//DTD SVG 1.1//EN" "http://www.w3.org/Graphics/SVG/1.1/DTD/svg11.dtd">
<svg version="1.1" xmlns="http://www.w3.org/2000/svg" xmlns:xlink="http://www.w3.org/1999/xlink" preserveAspectRatio="xMidYMid meet" viewBox="0 0 640 640" width="640" height="640"><defs><path d="M501.98 320C501.98 430.38 412.36 520 301.98 520C191.6 520 101.98 430.38 101.98 320C101.98 209.62 191.6 120 301.98 120C412.36 120 501.98 209.62 501.98 320Z" id="ayvdYD15"></path><path d="M303.76 327.32L304.64 327.42L305.5 327.55L306.36 327.71L307.2 327.91L308.02 328.15L308.84 328.41L309.63 328.71L310.42 329.04L311.18 329.4L311.93 329.8L312.66 330.22L313.37 330.67L314.06 331.14L314.73 331.65L315.37 332.18L316 332.73L316.6 333.31L317.18 333.91L317.74 334.54L318.27 335.19L318.77 335.86L319.25 336.55L319.7 337.26L320.12 337.99L320.51 338.74L320.87 339.5L321.2 340.28L321.5 341.08L321.77 341.89L322 342.72L322.2 343.56L322.37 344.41L322.5 345.28L322.59 346.15L322.65 347.04L322.67 347.94L322.67 378.97L322.65 379.87L322.59 380.75L322.5 381.63L322.37 382.49L322.2 383.35L322 384.19L321.77 385.01L321.5 385.83L321.2 386.62L320.87 387.4L320.51 388.17L320.12 388.92L319.7 389.65L319.25 390.36L318.77 391.05L318.27 391.72L317.74 392.36L317.18 392.99L316.6 393.59L316 394.17L315.37 394.73L314.73 395.26L314.06 395.76L313.37 396.24L312.66 396.69L311.93 397.11L311.18 397.5L310.42 397.86L309.63 398.19L308.84 398.49L308.02 398.76L307.2 398.99L306.36 399.19L305.5 399.36L304.64 399.49L303.76 399.58L302.88 399.64L301.98 399.66L301.08 399.64L300.2 399.58L299.32 399.49L298.46 399.36L297.6 399.19L296.76 398.99L295.94 398.76L295.12 398.49L294.33 398.19L293.54 397.86L292.78 397.5L292.03 397.11L291.3 396.69L290.59 396.24L289.9 395.76L289.23 395.26L288.59 394.73L287.96 394.17L287.36 393.59L286.78 392.99L286.22 392.36L285.69 391.72L285.19 391.05L284.71 390.36L284.26 389.65L283.84 388.92L283.45 388.17L283.09 387.4L282.76 386.62L282.46 385.83L282.19 385.01L281.96 384.19L281.76 383.35L281.59 382.49L281.46 381.63L281.37 380.75L281.31 379.87L281.29 378.97L281.29 347.94L281.31 347.04L281.37 346.15L281.46 345.28L281.59 344.41L281.76 343.56L281.96 342.72L282.19 341.89L282.46 341.08L282.76 340.28L283.09 339.5L283.45 338.74L283.84 337.99L284.26 337.26L284.71 336.55L285.19 335.86L285.69 335.19L286.22 334.54L286.78 333.91L287.36 333.31L287.96 332.73L288.59 332.18L289.23 331.65L289.9 331.14L290.59 330.67L291.3 330.22L292.03 329.8L292.78 329.4L293.54 329.04L294.33 328.71L295.12 328.41L295.94 328.15L296.76 327.91L297.6 327.71L298.46 327.55L299.32 327.42L300.2 327.32L301.08 327.26L301.98 327.25L302.88 327.26L303.76 327.32ZM300.63 337.68L299.98 337.78L299.34 337.93L298.71 338.12L298.11 338.34L297.52 338.6L296.95 338.9L296.4 339.23L295.87 339.59L295.37 339.98L294.9 340.4L294.45 340.85L294.03 341.33L293.63 341.83L293.27 342.35L292.94 342.9L292.65 343.47L292.39 344.06L292.16 344.67L291.98 345.29L291.83 345.93L291.72 346.59L291.66 347.26L291.64 347.94L291.64 378.97L291.66 379.65L291.72 380.32L291.83 380.97L291.98 381.61L292.16 382.24L292.39 382.84L292.65 383.43L292.94 384L293.27 384.55L293.63 385.08L294.03 385.58L294.45 386.05L294.9 386.5L295.37 386.92L295.87 387.32L296.4 387.68L296.95 388.01L297.52 388.3L298.11 388.56L298.71 388.79L299.34 388.97L299.98 389.12L300.63 389.23L301.3 389.29L301.98 389.31L302.43 389.3L302.89 389.25L303.33 389.17L303.78 389.05L304.22 388.9L304.66 388.72L305.09 388.5L305.52 388.26L305.95 387.97L306.37 387.66L306.79 387.31L307.21 386.93L307.63 386.52L308.04 386.07L308.44 385.59L308.85 385.08L309.25 384.53L309.64 383.95L310.04 383.34L310.43 382.69L310.81 382.02L311.2 381.3L311.58 380.56L311.95 379.78L312.33 378.97L312.33 347.94L312.3 347.26L312.24 346.59L312.13 345.93L311.98 345.29L311.8 344.67L311.57 344.06L311.31 343.47L311.02 342.9L310.69 342.35L310.33 341.83L309.93 341.33L309.51 340.85L309.06 340.4L308.59 339.98L308.09 339.59L307.56 339.23L307.01 338.9L306.44 338.6L305.85 338.34L305.25 338.12L304.62 337.93L303.98 337.78L303.33 337.68L302.66 337.61L301.98 337.59L301.3 337.61L300.63 337.68Z" id="azhvvbFac"></path><path d="M306.64 170.18L308.93 170.39L311.2 170.69L313.43 171.08L315.64 171.54L317.81 172.08L319.94 172.7L322.04 173.39L324.11 174.16L326.13 175L328.1 175.91L330.04 176.89L331.93 177.93L333.77 179.04L335.56 180.21L337.3 181.45L338.99 182.74L340.62 184.09L342.19 185.5L343.71 186.96L345.16 188.48L346.56 190.05L347.88 191.66L349.15 193.33L350.34 195.04L351.46 196.79L352.52 198.59L353.5 200.43L354.4 202.31L355.23 204.22L355.97 206.17L356.64 208.16L357.22 210.17L357.72 212.22L358.13 214.3L358.46 216.4L358.69 218.53L358.83 220.69L358.88 222.86L358.88 280.24L360.96 281.66L363.01 283.12L365.02 284.63L366.99 286.19L368.92 287.79L370.81 289.44L372.67 291.14L374.48 292.88L376.24 294.66L377.97 296.48L379.65 298.34L381.29 300.25L382.88 302.19L384.42 304.17L385.92 306.19L387.37 308.25L388.77 310.35L390.11 312.47L391.41 314.64L392.66 316.83L393.85 319.06L394.99 321.33L396.08 323.62L397.11 325.94L398.09 328.29L399.01 330.68L399.87 333.09L400.67 335.52L401.41 337.98L402.1 340.47L402.72 342.98L403.28 345.52L403.78 348.08L404.21 350.66L404.58 353.26L404.88 355.88L405.12 358.52L405.29 361.18L405.4 363.86L405.43 366.55L405.34 370.81L405.09 375.02L404.66 379.19L404.07 383.31L403.32 387.37L402.42 391.38L401.36 395.33L400.15 399.21L398.79 403.03L397.29 406.78L395.65 410.45L393.87 414.05L391.95 417.57L389.91 421L387.74 424.35L385.44 427.61L383.03 430.77L380.5 433.84L377.85 436.8L375.1 439.67L372.23 442.42L369.27 445.07L366.2 447.6L363.04 450.01L359.78 452.31L356.43 454.48L353 456.52L349.48 458.44L345.88 460.22L342.21 461.86L338.46 463.36L334.64 464.72L330.76 465.93L326.81 466.99L322.8 467.89L318.74 468.64L314.62 469.23L310.45 469.66L306.24 469.91L301.98 470L297.72 469.91L293.51 469.66L289.34 469.23L285.22 468.64L281.16 467.89L277.15 466.99L273.2 465.93L269.32 464.72L265.5 463.36L261.75 461.86L258.08 460.22L254.48 458.44L250.96 456.52L247.53 454.48L244.18 452.31L240.92 450.01L237.76 447.6L234.69 445.07L231.73 442.42L228.86 439.67L226.11 436.8L223.46 433.84L220.93 430.77L218.52 427.61L216.22 424.35L214.05 421L212.01 417.57L210.09 414.05L208.31 410.45L206.67 406.78L205.17 403.03L203.81 399.21L202.6 395.33L201.54 391.38L200.64 387.37L199.89 383.31L199.3 379.19L198.87 375.02L198.62 370.81L198.53 366.55L198.56 363.86L198.67 361.18L198.84 358.52L199.08 355.88L199.38 353.26L199.75 350.66L200.18 348.08L200.68 345.52L201.24 342.98L201.86 340.47L202.55 337.98L203.29 335.52L204.09 333.09L204.95 330.68L205.87 328.29L206.85 325.94L207.88 323.62L208.97 321.33L210.11 319.06L211.3 316.83L212.55 314.64L213.85 312.47L215.2 310.35L216.59 308.25L218.04 306.19L219.54 304.17L221.08 302.19L222.67 300.25L224.31 298.34L225.99 296.48L227.72 294.66L229.48 292.88L231.29 291.14L233.15 289.44L235.04 287.79L236.97 286.19L238.94 284.63L240.95 283.12L243 281.66L245.08 280.24L245.08 222.86L245.13 220.69L245.27 218.53L245.51 216.4L245.83 214.3L246.24 212.22L246.74 210.17L247.32 208.16L247.99 206.17L248.74 204.22L249.56 202.31L250.46 200.43L251.44 198.59L252.5 196.79L253.62 195.04L254.81 193.33L256.08 191.66L257.4 190.05L258.8 188.48L260.25 186.96L261.77 185.5L263.34 184.09L264.97 182.74L266.66 181.45L268.4 180.21L270.19 179.04L272.03 177.93L273.92 176.89L275.86 175.91L277.83 175L279.86 174.16L281.92 173.39L284.02 172.7L286.15 172.08L288.32 171.54L290.53 171.08L292.76 170.69L295.03 170.39L297.32 170.18L299.64 170.04L301.98 170L304.32 170.04L306.64 170.18ZM301.56 273.45L301.35 273.45L301.14 273.45L300.93 273.46L300.73 273.46L300.52 273.46L300.31 273.47L300.1 273.47L299.89 273.48L299.68 273.49L299.48 273.49L299.27 273.5L299.06 273.51L298.85 273.52L298.65 273.53L298.44 273.54L298.23 273.55L298.03 273.56L297.82 273.57L297.61 273.58L297.4 273.59L297.2 273.6L296.99 273.61L296.79 273.63L296.58 273.64L296.37 273.66L296.17 273.67L295.96 273.68L295.75 273.7L295.55 273.71L295.34 273.73L295.14 273.75L294.93 273.76L294.73 273.78L294.52 273.8L294.31 273.81L294.11 273.83L293.9 273.85L293.7 273.87L293.63 273.87L293.57 273.88L293.5 273.88L293.43 273.89L293.37 273.9L293.3 273.9L293.23 273.91L293.17 273.92L293.1 273.92L293.04 273.93L292.97 273.93L292.9 273.94L292.84 273.95L292.77 273.95L292.7 273.96L292.64 273.97L292.57 273.97L292.51 273.98L292.44 273.99L292.37 274L292.31 274L292.24 274.01L292.17 274.02L292.11 274.02L292.04 274.03L291.98 274.04L291.91 274.05L291.84 274.05L291.78 274.06L291.71 274.07L291.64 274.08L291.58 274.08L291.51 274.09L291.45 274.1L291.38 274.11L291.31 274.11L291.25 274.12L291.18 274.13L291.12 274.14L291.05 274.15L290.9 274.16L290.76 274.18L290.61 274.2L290.47 274.22L290.32 274.24L290.17 274.25L290.03 274.27L289.88 274.29L289.74 274.31L289.59 274.33L289.45 274.35L289.3 274.37L289.16 274.39L289.01 274.41L288.87 274.44L288.72 274.46L288.58 274.48L288.43 274.5L288.29 274.52L288.14 274.54L288 274.57L287.85 274.59L287.71 274.61L287.57 274.64L287.42 274.66L287.28 274.68L287.13 274.71L286.99 274.73L286.85 274.75L286.7 274.78L286.56 274.8L286.41 274.83L286.27 274.85L286.13 274.88L285.98 274.9L285.84 274.93L285.7 274.95L285.55 274.98L285.41 275.01L285.27 275.03L285.17 275.05L285.07 275.07L284.97 275.09L284.87 275.1L284.77 275.12L284.67 275.14L284.57 275.16L284.47 275.18L284.37 275.2L284.28 275.22L284.18 275.24L284.08 275.26L283.98 275.28L283.88 275.29L283.78 275.31L283.68 275.33L283.58 275.35L283.48 275.37L283.38 275.39L283.29 275.41L283.19 275.43L283.09 275.45L282.99 275.47L282.89 275.49L282.79 275.51L282.69 275.54L282.59 275.56L282.49 275.58L282.4 275.6L282.3 275.62L282.2 275.64L282.1 275.66L282 275.68L281.9 275.71L281.8 275.73L281.71 275.75L281.61 275.77L281.51 275.79L281.41 275.82L281.31 275.84L281.18 275.87L281.04 275.9L280.91 275.93L280.77 275.96L280.64 275.99L280.5 276.02L280.37 276.06L280.23 276.09L280.1 276.12L279.96 276.15L279.83 276.19L279.7 276.22L279.56 276.25L279.43 276.28L279.29 276.32L279.16 276.35L279.03 276.38L278.89 276.42L278.76 276.45L278.62 276.49L278.49 276.52L278.36 276.56L278.22 276.59L278.09 276.63L277.96 276.66L277.82 276.7L277.69 276.73L277.56 276.77L277.42 276.8L277.29 276.84L277.16 276.88L277.03 276.91L276.89 276.95L276.76 276.99L276.63 277.02L276.5 277.06L276.36 277.1L276.23 277.14L276.1 277.18L275.97 277.21L275.86 277.25L275.75 277.28L275.65 277.31L275.54 277.34L275.43 277.37L275.32 277.41L275.22 277.44L275.11 277.47L275 277.51L274.9 277.54L274.79 277.57L274.68 277.61L274.58 277.64L274.47 277.68L274.36 277.71L274.26 277.74L274.15 277.78L274.04 277.81L273.94 277.85L273.83 277.88L273.72 277.92L273.62 277.95L273.51 277.99L273.4 278.02L273.3 278.06L273.19 278.09L273.08 278.13L272.98 278.16L272.87 278.2L272.77 278.24L272.66 278.27L272.55 278.31L272.45 278.34L272.34 278.38L272.24 278.42L272.13 278.45L272.02 278.49L271.92 278.53L271.81 278.56L271.71 278.6L271.64 278.62L271.57 278.65L271.5 278.67L271.43 278.7L271.36 278.72L271.29 278.75L271.22 278.77L271.15 278.79L271.08 278.82L271.02 278.84L270.95 278.87L270.88 278.89L270.81 278.92L270.74 278.94L270.67 278.97L270.6 278.99L270.53 279.02L270.47 279.04L270.4 279.07L270.33 279.09L270.26 279.12L270.19 279.15L270.12 279.17L270.05 279.2L269.99 279.22L269.92 279.25L269.85 279.27L269.78 279.3L269.71 279.32L269.64 279.35L269.57 279.38L269.51 279.4L269.44 279.43L269.37 279.45L269.3 279.48L269.23 279.5L269.16 279.53L269.1 279.56L269.03 279.58L268.96 279.61L268.57 279.76L268.19 279.91L267.81 280.06L267.42 280.21L267.04 280.37L266.66 280.52L266.28 280.68L265.9 280.84L265.52 281L265.14 281.17L264.76 281.33L264.39 281.5L264.01 281.67L263.63 281.84L263.26 282.01L262.88 282.18L262.51 282.36L262.13 282.54L261.76 282.71L261.39 282.89L261.02 283.08L260.65 283.26L260.28 283.45L259.91 283.63L259.54 283.82L259.17 284.01L258.8 284.2L258.44 284.4L258.07 284.59L257.71 284.79L257.34 284.99L256.98 285.19L256.62 285.39L256.25 285.6L255.89 285.8L255.53 286.01L255.17 286.22L254.81 286.43L254.46 286.64L254.1 286.86L252.09 288.1L250.11 289.4L248.17 290.74L246.26 292.14L244.39 293.58L242.56 295.06L240.77 296.59L239.01 298.16L237.3 299.78L235.62 301.43L233.99 303.13L232.4 304.87L230.86 306.65L229.36 308.47L227.91 310.32L226.5 312.22L225.14 314.14L223.82 316.11L222.56 318.11L221.35 320.14L220.18 322.2L219.07 324.3L218.01 326.43L217.01 328.59L216.05 330.78L215.16 332.99L214.32 335.24L213.53 337.51L212.81 339.81L212.14 342.13L211.53 344.47L210.98 346.85L210.5 349.24L210.07 351.65L209.71 354.09L209.41 356.54L209.18 359.02L209.01 361.51L208.91 364.02L208.88 366.55L208.95 370.38L209.18 374.18L209.57 377.93L210.1 381.63L210.77 385.29L211.59 388.9L212.54 392.45L213.63 395.95L214.85 399.38L216.2 402.76L217.68 406.06L219.28 409.3L221.01 412.47L222.84 415.56L224.8 418.57L226.86 421.5L229.04 424.35L231.32 427.11L233.7 429.78L236.18 432.35L238.75 434.83L241.42 437.22L244.18 439.49L247.03 441.67L249.96 443.73L252.97 445.69L256.06 447.53L259.23 449.25L262.47 450.85L265.77 452.33L269.15 453.68L272.58 454.9L276.08 455.99L279.63 456.94L283.24 457.76L286.9 458.43L290.6 458.96L294.36 459.35L298.15 459.58L301.98 459.66L305.81 459.58L309.6 459.35L313.36 458.96L317.06 458.43L320.72 457.76L324.33 456.94L327.88 455.99L331.38 454.9L334.81 453.68L338.19 452.33L341.49 450.85L344.73 449.25L347.9 447.53L350.99 445.69L354 443.73L356.93 441.67L359.78 439.49L362.54 437.22L365.21 434.83L367.78 432.35L370.26 429.78L372.65 427.11L374.92 424.35L377.1 421.5L379.16 418.57L381.12 415.56L382.96 412.47L384.68 409.3L386.28 406.06L387.76 402.76L389.11 399.38L390.33 395.95L391.42 392.45L392.37 388.9L393.19 385.29L393.86 381.63L394.39 377.93L394.78 374.18L395.01 370.38L395.09 366.55L395.05 364.02L394.95 361.51L394.78 359.02L394.55 356.54L394.25 354.09L393.89 351.65L393.46 349.24L392.98 346.85L392.43 344.47L391.82 342.13L391.15 339.81L390.43 337.51L389.64 335.24L388.8 332.99L387.91 330.78L386.95 328.59L385.95 326.43L384.89 324.3L383.78 322.2L382.61 320.14L381.4 318.11L380.14 316.11L378.82 314.14L377.46 312.22L376.05 310.32L374.6 308.47L373.1 306.65L371.56 304.87L369.97 303.13L368.34 301.43L366.66 299.78L364.95 298.16L363.19 296.59L361.4 295.06L359.57 293.58L357.7 292.14L355.79 290.74L353.85 289.4L351.87 288.1L349.86 286.86L349.5 286.64L349.15 286.43L348.79 286.22L348.43 286.01L348.07 285.8L347.71 285.6L347.34 285.39L346.98 285.19L346.62 284.99L346.25 284.79L345.89 284.59L345.52 284.4L345.16 284.2L344.79 284.01L344.42 283.82L344.05 283.63L343.68 283.45L343.31 283.26L342.94 283.08L342.57 282.89L342.2 282.71L341.83 282.54L341.45 282.36L341.08 282.18L340.7 282.01L340.33 281.84L339.95 281.67L339.57 281.5L339.2 281.33L338.82 281.17L338.44 281L338.06 280.84L337.68 280.68L337.3 280.52L336.92 280.37L336.54 280.21L336.15 280.06L335.77 279.91L335.39 279.76L335 279.61L334.93 279.58L334.86 279.56L334.8 279.53L334.73 279.5L334.66 279.48L334.59 279.45L334.52 279.43L334.46 279.4L334.39 279.38L334.32 279.35L334.25 279.32L334.18 279.3L334.11 279.27L334.04 279.25L333.98 279.22L333.91 279.2L333.84 279.17L333.77 279.15L333.7 279.12L333.63 279.09L333.57 279.07L333.5 279.04L333.43 279.02L333.36 278.99L333.29 278.97L333.22 278.94L333.15 278.92L333.08 278.89L333.02 278.87L332.95 278.84L332.88 278.82L332.81 278.79L332.74 278.77L332.67 278.75L332.6 278.72L332.53 278.7L332.46 278.67L332.39 278.65L332.32 278.62L332.25 278.6L332.15 278.56L332.04 278.53L331.94 278.49L331.83 278.45L331.73 278.42L331.62 278.38L331.51 278.34L331.41 278.31L331.3 278.27L331.19 278.24L331.09 278.2L330.98 278.16L330.88 278.13L330.77 278.09L330.66 278.06L330.56 278.02L330.45 277.99L330.34 277.95L330.24 277.91L330.13 277.88L330.03 277.84L329.92 277.81L329.81 277.78L329.71 277.74L329.6 277.71L329.49 277.67L329.39 277.64L329.28 277.61L329.17 277.57L329.06 277.54L328.96 277.5L328.85 277.47L328.74 277.44L328.64 277.41L328.53 277.37L328.42 277.34L328.31 277.31L328.21 277.28L328.1 277.25L327.99 277.21L327.86 277.18L327.73 277.14L327.6 277.1L327.46 277.06L327.33 277.02L327.2 276.99L327.07 276.95L326.93 276.91L326.8 276.88L326.67 276.84L326.54 276.8L326.4 276.77L326.27 276.73L326.14 276.7L326 276.66L325.87 276.63L325.74 276.59L325.6 276.56L325.47 276.52L325.34 276.49L325.2 276.45L325.07 276.42L324.94 276.38L324.8 276.35L324.67 276.32L324.53 276.28L324.4 276.25L324.27 276.22L324.13 276.19L324 276.15L323.86 276.12L323.73 276.09L323.59 276.06L323.46 276.02L323.32 275.99L323.19 275.96L323.05 275.93L322.92 275.9L322.78 275.87L322.65 275.84L322.55 275.82L322.45 275.79L322.35 275.77L322.26 275.75L322.16 275.73L322.06 275.71L321.96 275.68L321.86 275.66L321.76 275.64L321.66 275.62L321.56 275.6L321.47 275.58L321.37 275.56L321.27 275.54L321.17 275.51L321.07 275.49L320.97 275.47L320.87 275.45L320.77 275.43L320.67 275.41L320.58 275.39L320.48 275.37L320.38 275.35L320.28 275.33L320.18 275.31L320.08 275.29L319.98 275.28L319.88 275.26L319.78 275.24L319.68 275.22L319.59 275.2L319.49 275.18L319.39 275.16L319.29 275.14L319.19 275.12L319.09 275.1L318.99 275.09L318.89 275.07L318.79 275.05L318.69 275.03L318.55 275.01L318.41 274.98L318.26 274.95L318.12 274.93L317.98 274.9L317.83 274.88L317.69 274.85L317.55 274.83L317.4 274.8L317.26 274.78L317.11 274.75L316.97 274.73L316.83 274.71L316.68 274.68L316.54 274.66L316.39 274.64L316.25 274.61L316.11 274.59L315.96 274.57L315.82 274.54L315.67 274.52L315.53 274.5L315.38 274.48L315.24 274.46L315.09 274.44L314.95 274.41L314.8 274.39L314.66 274.37L314.51 274.35L314.37 274.33L314.22 274.31L314.08 274.29L313.93 274.27L313.79 274.25L313.64 274.24L313.49 274.22L313.35 274.2L313.2 274.18L313.06 274.16L312.91 274.15L312.84 274.14L312.78 274.13L312.71 274.12L312.64 274.12L312.58 274.11L312.51 274.1L312.45 274.09L312.38 274.09L312.31 274.08L312.25 274.07L312.18 274.06L312.11 274.06L312.05 274.05L311.98 274.04L311.92 274.03L311.85 274.03L311.78 274.02L311.72 274.01L311.65 274.01L311.59 274L311.52 273.99L311.45 273.99L311.39 273.98L311.32 273.97L311.25 273.96L311.19 273.96L311.12 273.95L311.06 273.94L310.99 273.94L310.92 273.93L310.86 273.92L310.79 273.92L310.73 273.91L310.66 273.91L310.59 273.9L310.53 273.89L310.46 273.89L310.39 273.88L310.33 273.87L310.26 273.87L310.06 273.85L309.85 273.83L309.65 273.81L309.44 273.8L309.23 273.78L309.03 273.76L308.82 273.75L308.62 273.73L308.41 273.71L308.21 273.7L308 273.68L307.79 273.67L307.59 273.66L307.38 273.64L307.18 273.63L306.97 273.61L306.76 273.6L306.56 273.59L306.35 273.58L306.14 273.57L305.94 273.56L305.73 273.55L305.52 273.54L305.31 273.53L305.11 273.52L304.9 273.51L304.69 273.5L304.48 273.49L304.28 273.49L304.07 273.48L303.86 273.47L303.65 273.47L303.44 273.46L303.23 273.46L303.03 273.46L302.82 273.45L302.61 273.45L302.4 273.45L302.19 273.45L301.98 273.45L301.77 273.45L301.56 273.45ZM298.17 180.49L296.29 180.66L294.44 180.9L292.61 181.21L290.81 181.58L289.03 182.02L287.28 182.52L285.56 183.07L283.88 183.69L282.22 184.37L280.6 185.1L279.02 185.88L277.48 186.72L275.97 187.62L274.5 188.56L273.08 189.55L271.7 190.59L270.37 191.68L269.08 192.81L267.84 193.99L266.65 195.21L265.51 196.47L264.42 197.77L263.39 199.11L262.41 200.48L261.49 201.9L260.63 203.34L259.83 204.82L259.09 206.33L258.42 207.87L257.8 209.44L257.26 211.04L256.78 212.66L256.38 214.3L256.04 215.98L255.77 217.67L255.58 219.38L255.47 221.11L255.43 222.86L255.43 274.26L255.5 274.22L255.57 274.19L255.65 274.15L255.72 274.11L255.79 274.08L255.87 274.04L255.94 274.01L256.01 273.97L256.09 273.94L256.16 273.9L256.23 273.87L256.31 273.83L256.38 273.8L256.46 273.76L256.53 273.73L256.6 273.69L256.68 273.66L256.75 273.62L256.83 273.59L256.9 273.56L256.97 273.52L257.05 273.49L257.12 273.45L257.2 273.42L257.27 273.39L257.34 273.35L257.42 273.32L257.49 273.28L257.64 273.22L257.72 273.18L257.79 273.15L257.87 273.11L257.94 273.08L258.01 273.05L258.09 273.01L258.16 272.98L258.24 272.94L258.31 272.91L258.39 272.87L258.54 272.8L258.69 272.73L258.84 272.66L259 272.59L259.15 272.52L259.3 272.45L259.46 272.38L259.61 272.31L259.76 272.24L259.92 272.17L260.07 272.1L260.22 272.03L260.38 271.96L260.53 271.9L260.69 271.83L260.84 271.76L260.99 271.69L261.15 271.63L261.3 271.56L261.46 271.49L261.61 271.43L261.77 271.36L261.92 271.29L262.08 271.23L262.23 271.16L262.39 271.1L262.54 271.03L262.7 270.97L262.86 270.9L263.01 270.84L263.17 270.77L263.33 270.71L263.48 270.65L263.64 270.58L263.8 270.52L263.95 270.46L264.11 270.4L264.27 270.33L264.43 270.27L264.58 270.21L264.68 270.17L264.78 270.13L264.89 270.09L264.99 270.05L265.09 270.01L265.19 269.98L265.29 269.94L265.39 269.9L265.49 269.86L265.59 269.82L265.7 269.78L265.8 269.74L265.9 269.71L266 269.67L266.1 269.63L266.2 269.59L266.31 269.55L266.41 269.52L266.51 269.48L266.61 269.44L266.71 269.4L266.81 269.37L266.92 269.33L267.02 269.29L267.12 269.26L267.22 269.22L267.32 269.18L267.43 269.15L267.53 269.11L267.63 269.07L267.73 269.04L267.84 269L267.94 268.97L268.04 268.93L268.14 268.89L268.24 268.86L268.35 268.82L268.45 268.79L268.55 268.75L268.65 268.72L268.75 268.68L268.85 268.65L268.96 268.61L269.06 268.58L269.16 268.54L269.36 268.48L269.46 268.44L269.56 268.41L269.66 268.37L269.76 268.34L269.86 268.31L269.96 268.27L270.06 268.24L270.16 268.2L270.26 268.17L270.36 268.14L270.46 268.1L270.57 268.07L270.67 268.03L270.77 268L270.87 267.97L270.97 267.93L271.07 267.9L271.17 267.87L271.27 267.83L271.37 267.8L271.48 267.77L271.58 267.74L271.68 267.7L271.78 267.67L271.88 267.64L271.98 267.61L272.09 267.58L272.19 267.55L272.29 267.51L272.39 267.48L272.49 267.45L272.6 267.42L272.7 267.39L272.87 267.34L273.04 267.29L273.21 267.24L273.38 267.19L273.55 267.14L273.72 267.1L273.89 267.05L274.06 267L274.23 266.95L274.4 266.9L274.57 266.86L274.74 266.81L274.91 266.77L275.08 266.72L275.25 266.67L275.42 266.63L275.59 266.58L275.76 266.54L275.94 266.5L276.11 266.45L276.28 266.41L276.45 266.36L276.62 266.32L276.79 266.28L276.96 266.24L277.14 266.19L277.31 266.15L277.48 266.11L277.65 266.07L277.82 266.03L278 265.99L278.17 265.95L278.34 265.9L278.51 265.86L278.68 265.82L278.86 265.78L279.03 265.74L279.2 265.71L279.37 265.67L279.55 265.63L279.62 265.61L279.7 265.59L279.77 265.58L279.85 265.56L279.92 265.54L280 265.53L280.07 265.51L280.15 265.49L280.22 265.48L280.3 265.46L280.37 265.45L280.45 265.43L280.52 265.41L280.6 265.4L280.67 265.38L280.75 265.36L280.82 265.35L280.9 265.33L280.97 265.32L281.05 265.3L281.12 265.28L281.2 265.27L281.27 265.25L281.35 265.24L281.42 265.22L281.5 265.21L281.58 265.19L281.65 265.18L281.73 265.16L281.8 265.14L281.88 265.13L281.95 265.11L282.03 265.1L282.1 265.08L282.18 265.07L282.26 265.05L282.33 265.04L282.41 265.03L282.48 265.01L282.56 265L282.76 264.96L282.96 264.92L283.17 264.88L283.37 264.84L283.57 264.81L283.78 264.77L283.98 264.73L284.18 264.7L284.39 264.66L284.59 264.62L284.79 264.59L285 264.55L285.2 264.52L285.4 264.49L285.61 264.45L285.81 264.42L286.02 264.39L286.22 264.35L286.42 264.32L286.63 264.29L286.83 264.26L287.04 264.23L287.24 264.2L287.44 264.17L287.65 264.14L287.85 264.11L288.06 264.08L288.26 264.05L288.47 264.02L288.67 264L288.88 263.97L289.08 263.94L289.29 263.92L289.49 263.89L289.7 263.86L289.9 263.84L290.11 263.82L290.31 263.79L290.52 263.77L290.72 263.74L290.77 263.74L290.82 263.73L290.86 263.73L290.91 263.73L290.96 263.72L291 263.72L291.05 263.71L291.1 263.71L291.14 263.7L291.19 263.7L291.23 263.69L291.28 263.69L291.33 263.69L291.37 263.68L291.42 263.68L291.47 263.67L291.51 263.67L291.56 263.67L291.61 263.66L291.65 263.66L291.7 263.65L291.79 263.65L291.84 263.64L291.93 263.64L291.98 263.63L292.07 263.62L292.12 263.62L292.17 263.62L292.21 263.61L292.26 263.61L292.31 263.6L292.35 263.6L292.4 263.6L292.45 263.59L292.49 263.59L292.54 263.58L292.59 263.58L292.82 263.56L293.05 263.54L293.29 263.52L293.52 263.5L293.76 263.48L293.99 263.46L294.23 263.44L294.46 263.42L294.69 263.4L294.93 263.38L295.16 263.37L295.4 263.35L295.63 263.33L295.87 263.32L296.1 263.3L296.34 263.29L296.57 263.27L296.8 263.26L297.04 263.25L297.27 263.23L297.51 263.22L297.74 263.21L297.98 263.2L298.21 263.19L298.45 263.18L298.68 263.17L298.92 263.16L299.15 263.15L299.39 263.14L299.62 263.14L299.86 263.13L300.1 263.13L300.33 263.12L300.57 263.12L300.8 263.11L301.04 263.11L301.27 263.11L301.51 263.1L301.74 263.1L301.98 263.1L302.22 263.1L302.45 263.1L302.69 263.11L302.92 263.11L303.16 263.11L303.39 263.12L303.63 263.12L303.87 263.13L304.1 263.13L304.34 263.14L304.57 263.14L304.81 263.15L305.04 263.16L305.28 263.17L305.51 263.18L305.75 263.19L305.98 263.2L306.22 263.21L306.45 263.22L306.69 263.23L306.92 263.25L307.16 263.26L307.39 263.27L307.63 263.29L307.86 263.3L308.1 263.32L308.33 263.33L308.57 263.35L308.8 263.37L309.04 263.38L309.27 263.4L309.51 263.42L309.74 263.44L309.98 263.46L310.21 263.48L310.44 263.5L310.68 263.52L310.91 263.54L311.15 263.56L311.38 263.58L311.43 263.59L311.48 263.59L311.52 263.6L311.57 263.6L311.62 263.61L311.66 263.61L311.71 263.61L311.76 263.62L311.8 263.62L311.85 263.62L311.9 263.63L311.94 263.63L312.04 263.64L312.13 263.65L312.22 263.66L312.27 263.66L312.31 263.66L312.36 263.67L312.41 263.67L312.45 263.68L312.5 263.68L312.55 263.68L312.59 263.69L312.64 263.69L312.69 263.7L312.73 263.7L312.78 263.7L312.83 263.71L312.87 263.71L312.92 263.72L312.97 263.72L313.01 263.73L313.06 263.73L313.11 263.74L313.15 263.74L313.2 263.75L313.25 263.75L313.45 263.77L313.66 263.8L313.86 263.82L314.07 263.85L314.27 263.87L314.48 263.9L314.68 263.92L314.89 263.95L315.09 263.97L315.3 264L315.5 264.03L315.71 264.06L315.91 264.08L316.12 264.11L316.32 264.14L316.53 264.17L316.73 264.2L316.93 264.23L317.14 264.26L317.34 264.29L317.55 264.33L317.75 264.36L317.96 264.39L318.16 264.42L318.36 264.46L318.57 264.49L318.77 264.52L318.97 264.56L319.18 264.59L319.38 264.63L319.58 264.66L319.79 264.7L319.99 264.74L320.19 264.77L320.4 264.81L320.6 264.85L320.8 264.89L321.01 264.92L321.21 264.96L321.41 265L321.49 265.02L321.56 265.03L321.64 265.05L321.72 265.06L321.79 265.08L321.87 265.09L321.94 265.11L322.02 265.12L322.09 265.14L322.17 265.15L322.24 265.17L322.32 265.18L322.4 265.2L322.47 265.21L322.55 265.23L322.62 265.24L322.7 265.26L322.77 265.28L322.85 265.29L322.92 265.31L323 265.32L323.07 265.34L323.15 265.36L323.22 265.37L323.3 265.39L323.37 265.4L323.45 265.42L323.52 265.44L323.6 265.45L323.67 265.47L323.75 265.48L323.82 265.5L323.9 265.52L323.97 265.53L324.05 265.55L324.12 265.57L324.2 265.58L324.27 265.6L324.35 265.62L324.42 265.63L324.6 265.67L324.77 265.71L324.94 265.75L325.11 265.79L325.29 265.83L325.46 265.87L325.63 265.91L325.8 265.95L325.97 265.99L326.15 266.03L326.32 266.07L326.49 266.11L326.66 266.16L326.83 266.2L327.01 266.24L327.18 266.28L327.35 266.33L327.52 266.37L327.69 266.41L327.86 266.46L328.03 266.5L328.21 266.54L328.38 266.59L328.55 266.63L328.72 266.68L328.89 266.72L329.06 266.77L329.23 266.82L329.4 266.86L329.57 266.91L329.74 266.96L329.91 267L330.08 267.05L330.25 267.1L330.42 267.15L330.59 267.2L330.76 267.25L330.93 267.3L331.1 267.35L331.27 267.4L331.37 267.43L331.48 267.46L331.58 267.49L331.68 267.52L331.78 267.55L331.88 267.58L331.99 267.61L332.09 267.64L332.19 267.68L332.29 267.71L332.39 267.74L332.49 267.77L332.6 267.81L332.7 267.84L332.8 267.87L332.9 267.9L333 267.94L333.1 267.97L333.2 268L333.3 268.04L333.4 268.07L333.5 268.1L333.6 268.14L333.71 268.17L333.81 268.21L333.91 268.24L334.01 268.27L334.11 268.31L334.21 268.34L334.31 268.38L334.41 268.41L334.51 268.44L334.61 268.48L334.71 268.51L334.81 268.55L334.91 268.58L335.01 268.62L335.22 268.69L335.32 268.72L335.42 268.76L335.52 268.79L335.62 268.83L335.73 268.86L335.83 268.9L335.93 268.93L336.03 268.97L336.14 269.01L336.24 269.04L336.34 269.08L336.44 269.11L336.54 269.15L336.65 269.19L336.75 269.22L336.85 269.26L336.95 269.3L337.05 269.34L337.15 269.37L337.26 269.41L337.36 269.45L337.46 269.48L337.56 269.52L337.66 269.56L337.76 269.6L337.87 269.63L337.97 269.67L338.07 269.71L338.17 269.75L338.27 269.79L338.37 269.83L338.48 269.86L338.58 269.9L338.68 269.94L338.78 269.98L338.88 270.02L338.98 270.06L339.08 270.1L339.19 270.14L339.29 270.18L339.39 270.22L339.55 270.28L339.7 270.34L339.86 270.4L340.02 270.46L340.17 270.53L340.33 270.59L340.49 270.65L340.64 270.72L340.8 270.78L340.96 270.84L341.11 270.91L341.27 270.97L341.42 271.04L341.58 271.1L341.74 271.17L341.89 271.23L342.05 271.3L342.2 271.37L342.36 271.43L342.51 271.5L342.67 271.57L342.82 271.63L342.98 271.7L343.13 271.77L343.28 271.84L343.44 271.9L343.59 271.97L343.75 272.04L343.9 272.11L344.05 272.18L344.21 272.25L344.36 272.32L344.51 272.39L344.67 272.46L344.82 272.53L344.97 272.6L345.13 272.67L345.28 272.74L345.43 272.81L345.58 272.88L345.66 272.91L345.73 272.95L345.81 272.98L345.88 273.02L345.95 273.05L346.03 273.08L346.1 273.12L346.18 273.15L346.25 273.19L346.32 273.22L346.4 273.25L346.47 273.29L346.54 273.32L346.62 273.36L346.69 273.39L346.77 273.42L346.84 273.46L346.91 273.49L346.99 273.53L347.06 273.56L347.14 273.59L347.21 273.63L347.28 273.66L347.36 273.7L347.43 273.73L347.51 273.77L347.58 273.8L347.65 273.84L347.73 273.87L347.8 273.91L347.87 273.94L347.95 273.98L348.02 274.01L348.09 274.05L348.17 274.08L348.24 274.12L348.31 274.16L348.39 274.19L348.46 274.23L348.53 274.27L348.53 222.86L348.49 221.11L348.38 219.38L348.19 217.67L347.92 215.98L347.59 214.3L347.18 212.66L346.7 211.04L346.16 209.44L345.54 207.87L344.87 206.33L344.13 204.82L343.33 203.34L342.47 201.9L341.55 200.48L340.57 199.11L339.54 197.77L338.45 196.47L337.31 195.21L336.12 193.99L334.88 192.81L333.59 191.68L332.26 190.59L330.88 189.55L329.46 188.56L327.99 187.62L326.48 186.72L324.94 185.88L323.36 185.1L321.74 184.37L320.08 183.69L318.4 183.07L316.68 182.52L314.93 182.02L313.15 181.58L311.35 181.21L309.52 180.9L307.67 180.66L305.79 180.49L303.9 180.38L301.98 180.34L300.06 180.38L298.17 180.49Z" id="frU7jqVT0"></path></defs><g><g><g><use xlink:href="#ayvdYD15" opacity="1" fill="#171717" fill-opacity="1"></use><g><filter id="shadow2291095" x="92.98" y="111" width="419" height="419" filterUnits="userSpaceOnUse" primitiveUnits="userSpaceOnUse"><feFlood></feFlood><feComposite in2="SourceAlpha" operator="out"></feComposite><feGaussianBlur stdDeviation="1"></feGaussianBlur><feOffset dx="-1" dy="-1" result="afterOffset"></feOffset><feFlood flood-color="#000000" flood-opacity="0.41"></feFlood><feComposite in2="afterOffset" operator="in"></feComposite><feMorphology operator="dilate" radius="1"></feMorphology><feComposite in2="SourceAlpha" operator="in"></feComposite></filter><path d="M501.98 320C501.98 430.38 412.36 520 301.98 520C191.6 520 101.98 430.38 101.98 320C101.98 209.62 191.6 120 301.98 120C412.36 120 501.98 209.62 501.98 320Z" id="c1dT39eeWB" fill="white" fill-opacity="1" filter="url(#shadow2291095)"></path></g></g><g><use xlink:href="#azhvvbFac" opacity="1" fill="#ffdd33" fill-opacity="1"></use><g><use xlink:href="#azhvvbFac" opacity="1" fill-opacity="0" stroke="#000000" stroke-width="1" stroke-opacity="0"></use></g></g><g><use xlink:href="#frU7jqVT0" opacity="1" fill="#ffdd33" fill-opacity="1"></use><g><use xlink:href="#frU7jqVT0" opacity="1" fill-opacity="0" stroke="#000000" stroke-width="1" stroke-opacity="0"></use></g></g></g></g></svg>