<?xml version="1.0" encoding="UTF-8" standalone="no"?>
<svg
   xmlns:dc="http://purl.org/dc/elements/1.1/"
   xmlns:cc="http://creativecommons.org/ns#"
   xmlns:rdf="http://www.w3.org/1999/02/22-rdf-syntax-ns#"
   xmlns:svg="http://www.w3.org/2000/svg"
   xmlns="http://www.w3.org/2000/svg"
   xmlns:xlink="http://www.w3.org/1999/xlink"
   xmlns:sodipodi="http://sodipodi.sourceforge.net/DTD/sodipodi-0.dtd"
   xmlns:inkscape="http://www.inkscape.org/namespaces/inkscape"
   version="1.1"
   preserveAspectRatio="xMidYMid meet"
   viewBox="0 0 640 640"
   width="640"
   height="640"
   id="svg68"
   sodipodi:docname="safe.svg"
   inkscape:version="0.92.4 (5da689c313, 2019-01-14)">
  <metadata
     id="metadata72">
    <rdf:RDF>
      <cc:Work
         rdf:about="">
        <dc:format>image/svg+xml</dc:format>
        <dc:type
           rdf:resource="http://purl.org/dc/dcmitype/StillImage" />
      </cc:Work>
    </rdf:RDF>
  </metadata>
  <sodipodi:namedview
     pagecolor="#ffffff"
     bordercolor="#666666"
     borderopacity="1"
     objecttolerance="10"
     gridtolerance="10"
     guidetolerance="10"
     inkscape:pageopacity="0"
     inkscape:pageshadow="2"
     inkscape:window-width="1920"
     inkscape:window-height="1001"
     id="namedview70"
     showgrid="false"
     inkscape:zoom="0.36875"
     inkscape:cx="320"
     inkscape:cy="428.47458"
     inkscape:window-x="-9"
     inkscape:window-y="-9"
     inkscape:window-maximized="1"
     inkscape:current-layer="svg68" />
  <defs
     id="defs14">
    <path
       d="M582.29 313.29C582.29 451.27 470.27 563.29 332.29 563.29C194.32 563.29 82.29 451.27 82.29 313.29C82.29 175.31 194.32 63.29 332.29 63.29C470.27 63.29 582.29 175.31 582.29 313.29Z"
       id="bq0MPonRW" />
    <path
       d="M507.29 313.29C507.29 409.88 428.88 488.29 332.29 488.29C235.71 488.29 157.29 409.88 157.29 313.29C157.29 216.71 235.71 138.29 332.29 138.29C428.88 138.29 507.29 216.71 507.29 313.29Z"
       id="hyl4IdsfG" />
    <path
       d="M337.29 71.15C340.06 71.15 342.29 73.38 342.29 76.15C342.29 87.15 342.29 115.15 342.29 126.15C342.29 128.91 340.06 131.15 337.29 131.15C334.29 131.15 330.29 131.15 327.29 131.15C324.53 131.15 322.29 128.91 322.29 126.15C322.29 115.15 322.29 87.15 322.29 76.15C322.29 73.38 324.53 71.15 327.29 71.15C330.29 71.15 334.29 71.15 337.29 71.15Z"
       id="d6pbjCAikJ" />
    <path
       d="M337.29 495.31C340.06 495.31 342.29 497.55 342.29 500.31C342.29 511.31 342.29 539.31 342.29 550.31C342.29 553.07 340.06 555.31 337.29 555.31C334.29 555.31 330.29 555.31 327.29 555.31C324.53 555.31 322.29 553.07 322.29 550.31C322.29 539.31 322.29 511.31 322.29 500.31C322.29 497.55 324.53 495.31 327.29 495.31C330.29 495.31 334.29 495.31 337.29 495.31Z"
       id="bfZ7bH917" />
    <path
       d="M576.04 318.29C576.04 321.05 573.81 323.29 571.04 323.29C560.04 323.29 532.04 323.29 521.04 323.29C518.28 323.29 516.04 321.05 516.04 318.29C516.04 315.29 516.04 311.29 516.04 308.29C516.04 305.53 518.28 303.29 521.04 303.29C532.04 303.29 560.04 303.29 571.04 303.29C573.81 303.29 576.04 305.53 576.04 308.29C576.04 311.29 576.04 315.29 576.04 318.29Z"
       id="d18OI0Y8ff" />
    <path
       d="M150.21 318.29C150.21 321.05 147.97 323.29 145.21 323.29C134.21 323.29 106.21 323.29 95.21 323.29C92.45 323.29 90.21 321.05 90.21 318.29C90.21 315.29 90.21 311.29 90.21 308.29C90.21 305.53 92.45 303.29 95.21 303.29C106.21 303.29 134.21 303.29 145.21 303.29C147.97 303.29 150.21 305.53 150.21 308.29C150.21 311.29 150.21 315.29 150.21 318.29Z"
       id="hr72AoXzY" />
    <path
       d="M505.83 146.83C507.78 148.78 507.78 151.95 505.83 153.9C498.05 161.68 478.25 181.48 470.48 189.25C468.52 191.21 465.36 191.21 463.4 189.25C461.28 187.13 458.45 184.3 456.33 182.18C454.38 180.23 454.38 177.06 456.33 175.11C464.11 167.33 483.91 147.54 491.69 139.76C493.64 137.8 496.81 137.8 498.76 139.76C500.88 141.88 503.71 144.71 505.83 146.83Z"
       id="cuoW88yLX" />
    <path
       d="M208.26 444.4C210.21 446.35 210.21 449.52 208.26 451.47C200.48 459.25 180.68 479.05 172.9 486.83C170.95 488.78 167.78 488.78 165.83 486.83C163.71 484.71 160.88 481.88 158.76 479.76C156.81 477.8 156.81 474.64 158.76 472.69C166.54 464.91 186.34 445.11 194.11 437.33C196.07 435.38 199.23 435.38 201.19 437.33C203.31 439.45 206.14 442.28 208.26 444.4Z"
       id="b2wKMS5Xpb" />
    <path
       d="M201.19 189.25C199.23 191.21 196.07 191.21 194.11 189.25C186.34 181.48 166.54 161.68 158.76 153.9C156.81 151.95 156.81 148.78 158.76 146.83C160.88 144.71 163.71 141.88 165.83 139.76C167.78 137.8 170.95 137.8 172.9 139.76C180.68 147.54 200.48 167.33 208.26 175.11C210.21 177.06 210.21 180.23 208.26 182.18C206.14 184.3 203.31 187.13 201.19 189.25Z"
       id="a791mJM7Up" />
    <path
       d="M498.76 493.85C496.81 495.8 493.64 495.8 491.69 493.85C483.91 486.07 464.11 466.27 456.33 458.49C454.38 456.54 454.38 453.37 456.33 451.42C458.45 449.3 461.28 446.47 463.4 444.35C465.36 442.4 468.52 442.4 470.48 444.35C478.25 452.13 498.05 471.93 505.83 479.71C507.78 481.66 507.78 484.82 505.83 486.78C503.71 488.9 500.88 491.73 498.76 493.85Z"
       id="b4gFjHzO0I" />
    <path
       d="M470.45 212.65L459.81 260.8L422.3 223.28L384.79 185.76L432.93 175.13L481.08 164.51L470.45 212.65Z"
       id="aWr9VjE6Q" />
    <path
       d="M481.08 313.29C481.08 396.08 413.87 463.29 331.08 463.29C248.29 463.29 181.08 396.08 181.08 313.29C181.08 230.51 248.29 163.29 331.08 163.29C413.87 163.29 481.08 230.51 481.08 313.29Z"
       id="a201u9ocCy" />
  </defs>
  <g
     id="g66"
     transform="matrix(1.2711865,0,0,1.2494915,-100.24814,-69.892019)">
    <g
       id="g64">
      <g
         id="g18">
        <use
           xlink:href="#bq0MPonRW"
           id="use16"
           style="opacity:1;fill:#171717;fill-opacity:1"
           x="0"
           y="0"
           width="100%"
           height="100%" />
      </g>
      <g
         id="g22">
        <use
           xlink:href="#hyl4IdsfG"
           id="use20"
           style="opacity:1;fill:#ffdd33;fill-opacity:1"
           x="0"
           y="0"
           width="100%"
           height="100%" />
      </g>
      <g
         id="g26">
        <use
           xlink:href="#d6pbjCAikJ"
           id="use24"
           style="opacity:1;fill:#262626;fill-opacity:1"
           x="0"
           y="0"
           width="100%"
           height="100%" />
      </g>
      <g
         id="g30">
        <use
           xlink:href="#bfZ7bH917"
           id="use28"
           style="opacity:1;fill:#262626;fill-opacity:1"
           x="0"
           y="0"
           width="100%"
           height="100%" />
      </g>
      <g
         id="g34">
        <use
           xlink:href="#d18OI0Y8ff"
           id="use32"
           style="opacity:1;fill:#262626;fill-opacity:1"
           x="0"
           y="0"
           width="100%"
           height="100%" />
      </g>
      <g
         id="g38">
        <use
           xlink:href="#hr72AoXzY"
           id="use36"
           style="opacity:1;fill:#262626;fill-opacity:1"
           x="0"
           y="0"
           width="100%"
           height="100%" />
      </g>
      <g
         id="g42">
        <use
           xlink:href="#cuoW88yLX"
           id="use40"
           style="opacity:1;fill:#262626;fill-opacity:1"
           x="0"
           y="0"
           width="100%"
           height="100%" />
      </g>
      <g
         id="g46">
        <use
           xlink:href="#b2wKMS5Xpb"
           id="use44"
           style="opacity:1;fill:#262626;fill-opacity:1"
           x="0"
           y="0"
           width="100%"
           height="100%" />
      </g>
      <g
         id="g50">
        <use
           xlink:href="#a791mJM7Up"
           id="use48"
           style="opacity:1;fill:#262626;fill-opacity:1"
           x="0"
           y="0"
           width="100%"
           height="100%" />
      </g>
      <g
         id="g54">
        <use
           xlink:href="#b4gFjHzO0I"
           id="use52"
           style="opacity:1;fill:#262626;fill-opacity:1"
           x="0"
           y="0"
           width="100%"
           height="100%" />
      </g>
      <g
         id="g58">
        <use
           xlink:href="#aWr9VjE6Q"
           id="use56"
           style="opacity:1;fill:#ffdd33;fill-opacity:1"
           x="0"
           y="0"
           width="100%"
           height="100%" />
      </g>
      <g
         id="g62">
        <use
           xlink:href="#a201u9ocCy"
           id="use60"
           style="opacity:1;fill:#171717;fill-opacity:1"
           x="0"
           y="0"
           width="100%"
           height="100%" />
      </g>
    </g>
  </g>
</svg>
